# xmcd
#
# Track frame offsets:
#	150
#	21420
#	48995
#	68120
#	88370
#	106058
#	122358
#	146620
#	163570
#	185595
#	201795
#	223358
#	249970
#	266158
#	284370
#	301708
#
# Disc length: 4313 seconds
#
# Revision: 1
# Processed by: cddbd v1.5.2PL0 Copyright (c) Steve Scherf et al.
# Submitted via: audiograbber 1.83.01
#
DISCID=eb10d710
DTITLE=Best Of Rock - Soft Rock
DYEAR=1900
DGENRE=Rock
TTITLE0=Starship - Sara
TTITLE1=It's A Beautiful Day - White Bird
TTITLE2=Curtis Stigers - I Wonder Why
TTITLE3=Meat Loaf - Rock 'N' Roll Hero
TTITLE4=Journey - Send Me Her Love
TTITLE5=Men At Work - Childern On Parade
TTITLE6=Tesla - Love Song
TTITLE7=10CC - I'm Not In Love
TTITLE8=Eric Carmen - All By Myself
TTITLE9=Santana - Europa (Earth's Cry, Heaven's Smile)
TTITLE10=Firehouse - Love Of A Lifetime
TTITLE11=Extreme - Song For Love
TTITLE12=Stone Roses - One Love
TTITLE13=Ugly Kid Joe - Cats In The Cradle
TTITLE14=Toto - How Does It Feel
TTITLE15=Europe - Homeland
EXTD=
EXTT0=
EXTT1=
EXTT2=
EXTT3=
EXTT4=
EXTT5=
EXTT6=
EXTT7=
EXTT8=
EXTT9=
EXTT10=
EXTT11=
EXTT12=
EXTT13=
EXTT14=
EXTT15=
PLAYORDER=
